<?xml version="1.0" encoding="UTF-8" standalone="no"?><svg xmlns="http://www.w3.org/2000/svg" xmlns:xlink="http://www.w3.org/1999/xlink" contentScriptType="application/ecmascript" contentStyleType="text/css" height="1207px" preserveAspectRatio="none" style="width:843px;height:1207px;" version="1.1" viewBox="0 0 843 1207" width="843px" zoomAndPan="magnify"><defs><filter height="300%" id="fhvqhu3u4cafa" width="300%" x="-1" y="-1"><feGaussianBlur result="blurOut" stdDeviation="2.0"/><feColorMatrix in="blurOut" result="blurOut2" type="matrix" values="0 0 0 0 0 0 0 0 0 0 0 0 0 0 0 0 0 0 .4 0"/><feOffset dx="4.0" dy="4.0" in="blurOut2" result="blurOut3"/><feBlend in="SourceGraphic" in2="blurOut3" mode="normal"/></filter></defs><g><line style="stroke: #A80036; stroke-width: 1.0; stroke-dasharray: 5.0,5.0;" x1="248" x2="248" y1="87.6094" y2="1119.3203"/><line style="stroke: #A80036; stroke-width: 1.0; stroke-dasharray: 5.0,5.0;" x1="472.5" x2="472.5" y1="87.6094" y2="1119.3203"/><line style="stroke: #A80036; stroke-width: 1.0; stroke-dasharray: 5.0,5.0;" x1="614.5" x2="614.5" y1="87.6094" y2="1119.3203"/><line style="stroke: #A80036; stroke-width: 1.0; stroke-dasharray: 5.0,5.0;" x1="734.5" x2="734.5" y1="87.6094" y2="1119.3203"/><text fill="#000000" font-family="sans-serif" font-size="14" lengthAdjust="spacingAndGlyphs" textLength="29" x="231" y="84.5332">User</text><ellipse cx="248.5" cy="13" fill="#FEFECE" filter="url(#fhvqhu3u4cafa)" rx="8" ry="8" style="stroke: #A80036; stroke-width: 2.0;"/><path d="M248.5,21 L248.5,48 M235.5,29 L261.5,29 M248.5,48 L235.5,63 M248.5,48 L261.5,63 " fill="none" filter="url(#fhvqhu3u4cafa)" style="stroke: #A80036; stroke-width: 2.0;"/><text fill="#000000" font-family="sans-serif" font-size="14" lengthAdjust="spacingAndGlyphs" textLength="29" x="231" y="1132.8535">User</text><ellipse cx="248.5" cy="1145.9297" fill="#FEFECE" filter="url(#fhvqhu3u4cafa)" rx="8" ry="8" style="stroke: #A80036; stroke-width: 2.0;"/><path d="M248.5,1153.9297 L248.5,1180.9297 M235.5,1161.9297 L261.5,1161.9297 M248.5,1180.9297 L235.5,1195.9297 M248.5,1180.9297 L261.5,1195.9297 " fill="none" filter="url(#fhvqhu3u4cafa)" style="stroke: #A80036; stroke-width: 2.0;"/><rect fill="#FEFECE" filter="url(#fhvqhu3u4cafa)" height="31.6094" style="stroke: #A80036; stroke-width: 1.5;" width="122" x="409.5" y="51"/><text fill="#000000" font-family="sans-serif" font-size="14" lengthAdjust="spacingAndGlyphs" textLength="108" x="416.5" y="72.5332">Authorize service</text><rect fill="#FEFECE" filter="url(#fhvqhu3u4cafa)" height="31.6094" style="stroke: #A80036; stroke-width: 1.5;" width="122" x="409.5" y="1118.3203"/><text fill="#000000" font-family="sans-serif" font-size="14" lengthAdjust="spacingAndGlyphs" textLength="108" x="416.5" y="1139.8535">Authorize service</text><rect fill="#FEFECE" filter="url(#fhvqhu3u4cafa)" height="31.6094" style="stroke: #A80036; stroke-width: 1.5;" width="92" x="566.5" y="51"/><text fill="#000000" font-family="sans-serif" font-size="14" lengthAdjust="spacingAndGlyphs" textLength="78" x="573.5" y="72.5332">OTP service</text><rect fill="#FEFECE" filter="url(#fhvqhu3u4cafa)" height="31.6094" style="stroke: #A80036; stroke-width: 1.5;" width="92" x="566.5" y="1118.3203"/><text fill="#000000" font-family="sans-serif" font-size="14" lengthAdjust="spacingAndGlyphs" textLength="78" x="573.5" y="1139.8535">OTP service</text><rect fill="#FEFECE" filter="url(#fhvqhu3u4cafa)" height="31.6094" style="stroke: #A80036; stroke-width: 1.5;" width="121" x="672.5" y="51"/><text fill="#000000" font-family="sans-serif" font-size="14" lengthAdjust="spacingAndGlyphs" textLength="107" x="679.5" y="72.5332">Activadte service</text><rect fill="#FEFECE" filter="url(#fhvqhu3u4cafa)" height="31.6094" style="stroke: #A80036; stroke-width: 1.5;" width="121" x="672.5" y="1118.3203"/><text fill="#000000" font-family="sans-serif" font-size="14" lengthAdjust="spacingAndGlyphs" textLength="107" x="679.5" y="1139.8535">Activadte service</text><rect fill="#EEEEEE" filter="url(#fhvqhu3u4cafa)" height="3" style="stroke: #EEEEEE; stroke-width: 1.0;" width="828" x="3" y="118.7852"/><line style="stroke: #000000; stroke-width: 1.0;" x1="3" x2="831" y1="118.7852" y2="118.7852"/><line style="stroke: #000000; stroke-width: 1.0;" x1="3" x2="831" y1="121.7852" y2="121.7852"/><rect fill="#EEEEEE" filter="url(#fhvqhu3u4cafa)" height="24.3516" style="stroke: #000000; stroke-width: 2.0;" width="79" x="377.5" y="107.6094"/><text fill="#000000" font-family="sans-serif" font-size="13" font-weight="bold" lengthAdjust="spacingAndGlyphs" textLength="61" x="383.5" y="125.1045">Authorize</text><polygon fill="#A80036" points="460.5,198.0156,470.5,202.0156,460.5,206.0156,464.5,202.0156" style="stroke: #A80036; stroke-width: 1.0;"/><line style="stroke: #A80036; stroke-width: 1.0;" x1="248.5" x2="466.5" y1="202.0156" y2="202.0156"/><text fill="#000000" font-family="sans-serif" font-size="13" lengthAdjust="spacingAndGlyphs" textLength="135" x="255.5" y="197.1592">Authentication Request</text><path d="M19,146.9609 L19,237.9609 L239,237.9609 L239,156.9609 L229,146.9609 L19,146.9609 " fill="#FBFB77" filter="url(#fhvqhu3u4cafa)" style="stroke: #A80036; stroke-width: 1.0;"/><path d="M229,146.9609 L229,156.9609 L239,156.9609 L229,146.9609 " fill="#FBFB77" style="stroke: #A80036; stroke-width: 1.0;"/><text fill="#000000" font-family="sans-serif" font-size="13" lengthAdjust="spacingAndGlyphs" textLength="194" x="25" y="165.4561">ใช้ user ที่ยังไม่ได้ผ่านการ activate</text><text fill="#000000" font-family="sans-serif" font-size="13" lengthAdjust="spacingAndGlyphs" textLength="4" x="25" y="181.8076">{</text><text fill="#000000" font-family="sans-serif" font-size="13" lengthAdjust="spacingAndGlyphs" textLength="141" x="33" y="198.1592">"username":"thanachai",</text><text fill="#000000" font-family="sans-serif" font-size="13" lengthAdjust="spacingAndGlyphs" textLength="191" x="33" y="214.5107">"password":"a1e6-4f63e8295160"</text><text fill="#000000" font-family="sans-serif" font-size="13" lengthAdjust="spacingAndGlyphs" textLength="4" x="25" y="230.8623">}</text><line style="stroke: #A80036; stroke-width: 1.0;" x1="472.5" x2="514.5" y1="286.4219" y2="286.4219"/><line style="stroke: #A80036; stroke-width: 1.0;" x1="514.5" x2="514.5" y1="286.4219" y2="299.4219"/><line style="stroke: #A80036; stroke-width: 1.0;" x1="485.5" x2="514.5" y1="299.4219" y2="299.4219"/><line style="stroke: #A80036; stroke-width: 2.0;" x1="478.5" x2="488.5" y1="294.4219" y2="304.4219"/><line style="stroke: #A80036; stroke-width: 2.0;" x1="478.5" x2="488.5" y1="304.4219" y2="294.4219"/><text fill="#000000" font-family="sans-serif" font-size="13" lengthAdjust="spacingAndGlyphs" textLength="128" x="479.5" y="265.2139">Check user is activate</text><text fill="#000000" font-family="sans-serif" font-size="13" lengthAdjust="spacingAndGlyphs" textLength="79" x="479.5" y="281.5654">activate=false</text><line style="stroke: #A80036; stroke-width: 2.0;" x1="254.5" x2="264.5" y1="324.7734" y2="334.7734"/><line style="stroke: #A80036; stroke-width: 2.0;" x1="254.5" x2="264.5" y1="334.7734" y2="324.7734"/><line style="stroke: #A80036; stroke-width: 1.0; stroke-dasharray: 2.0,2.0;" x1="260.5" x2="471.5" y1="329.7734" y2="329.7734"/><text fill="#000000" font-family="sans-serif" font-size="13" lengthAdjust="spacingAndGlyphs" textLength="200" x="265.5" y="324.917">403 Error authentication Response</text><rect fill="#EEEEEE" filter="url(#fhvqhu3u4cafa)" height="3" style="stroke: #EEEEEE; stroke-width: 1.0;" width="828" x="3" y="358.9492"/><line style="stroke: #000000; stroke-width: 1.0;" x1="3" x2="831" y1="358.9492" y2="358.9492"/><line style="stroke: #000000; stroke-width: 1.0;" x1="3" x2="831" y1="361.9492" y2="361.9492"/><rect fill="#EEEEEE" filter="url(#fhvqhu3u4cafa)" height="24.3516" style="stroke: #000000; stroke-width: 2.0;" width="101" x="366.5" y="347.7734"/><text fill="#000000" font-family="sans-serif" font-size="13" font-weight="bold" lengthAdjust="spacingAndGlyphs" textLength="83" x="372.5" y="365.2686">Activate User</text><polygon fill="#A80036" points="602.5,413.6523,612.5,417.6523,602.5,421.6523,606.5,417.6523" style="stroke: #A80036; stroke-width: 1.0;"/><line style="stroke: #A80036; stroke-width: 1.0;" x1="248.5" x2="608.5" y1="417.6523" y2="417.6523"/><text fill="#000000" font-family="sans-serif" font-size="13" lengthAdjust="spacingAndGlyphs" textLength="265" x="255.5" y="412.7959">Request GET /otp endpoint with ADMIN token</text><path d="M8,387.125 L8,429.125 L240,429.125 L240,397.125 L230,387.125 L8,387.125 " fill="#FBFB77" filter="url(#fhvqhu3u4cafa)" style="stroke: #A80036; stroke-width: 1.0;"/><path d="M230,387.125 L230,397.125 L240,397.125 L230,387.125 " fill="#FBFB77" style="stroke: #A80036; stroke-width: 1.0;"/><text fill="#000000" font-family="sans-serif" font-size="13" lengthAdjust="spacingAndGlyphs" textLength="41" x="14" y="405.6201">Header</text><text fill="#000000" font-family="sans-serif" font-size="13" lengthAdjust="spacingAndGlyphs" textLength="211" x="14" y="421.9717">Authorization: Bearer {ADMIN token}</text><line style="stroke: #A80036; stroke-width: 1.0;" x1="614.5" x2="656.5" y1="477.5313" y2="477.5313"/><line style="stroke: #A80036; stroke-width: 1.0;" x1="656.5" x2="656.5" y1="477.5313" y2="490.5313"/><line style="stroke: #A80036; stroke-width: 1.0;" x1="615.5" x2="656.5" y1="490.5313" y2="490.5313"/><polygon fill="#A80036" points="625.5,486.5313,615.5,490.5313,625.5,494.5313,621.5,490.5313" style="stroke: #A80036; stroke-width: 1.0;"/><text fill="#000000" font-family="sans-serif" font-size="13" lengthAdjust="spacingAndGlyphs" textLength="83" x="621.5" y="456.3232">Generate OTP</text><text fill="#000000" font-family="sans-serif" font-size="13" lengthAdjust="spacingAndGlyphs" textLength="101" x="625.5" y="472.6748">with individal key.</text><polygon fill="#A80036" points="259.5,538.2344,249.5,542.2344,259.5,546.2344,255.5,542.2344" style="stroke: #A80036; stroke-width: 1.0;"/><line style="stroke: #A80036; stroke-width: 1.0; stroke-dasharray: 2.0,2.0;" x1="253.5" x2="613.5" y1="542.2344" y2="542.2344"/><text fill="#000000" font-family="sans-serif" font-size="13" lengthAdjust="spacingAndGlyphs" textLength="135" x="265.5" y="537.3779">OTP number Response</text><path d="M126,503.5313 L126,562.5313 L239,562.5313 L239,513.5313 L229,503.5313 L126,503.5313 " fill="#FBFB77" filter="url(#fhvqhu3u4cafa)" style="stroke: #A80036; stroke-width: 1.0;"/><path d="M229,503.5313 L229,513.5313 L239,513.5313 L229,503.5313 " fill="#FBFB77" style="stroke: #A80036; stroke-width: 1.0;"/><text fill="#000000" font-family="sans-serif" font-size="13" lengthAdjust="spacingAndGlyphs" textLength="4" x="132" y="522.0264">{</text><text fill="#000000" font-family="sans-serif" font-size="13" lengthAdjust="spacingAndGlyphs" textLength="84" x="140" y="538.3779">"otp":"123456"</text><text fill="#000000" font-family="sans-serif" font-size="13" lengthAdjust="spacingAndGlyphs" textLength="4" x="132" y="554.7295">}</text><polygon fill="#A80036" points="723,627.6406,733,631.6406,723,635.6406,727,631.6406" style="stroke: #A80036; stroke-width: 1.0;"/><line style="stroke: #A80036; stroke-width: 1.0;" x1="248.5" x2="729" y1="631.6406" y2="631.6406"/><text fill="#000000" font-family="sans-serif" font-size="13" lengthAdjust="spacingAndGlyphs" textLength="132" x="255.5" y="626.7842">Authentication with otp</text><path d="M15,576.5859 L15,667.5859 L239,667.5859 L239,586.5859 L229,576.5859 L15,576.5859 " fill="#FBFB77" filter="url(#fhvqhu3u4cafa)" style="stroke: #A80036; stroke-width: 1.0;"/><path d="M229,576.5859 L229,586.5859 L239,586.5859 L229,576.5859 " fill="#FBFB77" style="stroke: #A80036; stroke-width: 1.0;"/><text fill="#000000" font-family="sans-serif" font-size="13" lengthAdjust="spacingAndGlyphs" textLength="4" x="21" y="595.0811">{</text><text fill="#000000" font-family="sans-serif" font-size="13" lengthAdjust="spacingAndGlyphs" textLength="141" x="29" y="611.4326">"username":"thanachai",</text><text fill="#000000" font-family="sans-serif" font-size="13" lengthAdjust="spacingAndGlyphs" textLength="195" x="29" y="627.7842">"password":"a1e6-4f63e8295160",</text><text fill="#000000" font-family="sans-serif" font-size="13" lengthAdjust="spacingAndGlyphs" textLength="84" x="29" y="644.1357">"otp":"123456"</text><text fill="#000000" font-family="sans-serif" font-size="13" lengthAdjust="spacingAndGlyphs" textLength="4" x="21" y="660.4873">}</text><line style="stroke: #A80036; stroke-width: 1.0;" x1="735" x2="777" y1="716.0469" y2="716.0469"/><line style="stroke: #A80036; stroke-width: 1.0;" x1="777" x2="777" y1="716.0469" y2="729.0469"/><line style="stroke: #A80036; stroke-width: 1.0;" x1="736" x2="777" y1="729.0469" y2="729.0469"/><polygon fill="#A80036" points="746,725.0469,736,729.0469,746,733.0469,742,729.0469" style="stroke: #A80036; stroke-width: 1.0;"/><text fill="#000000" font-family="sans-serif" font-size="13" lengthAdjust="spacingAndGlyphs" textLength="49" x="742" y="694.8389">Set user</text><text fill="#000000" font-family="sans-serif" font-size="13" lengthAdjust="spacingAndGlyphs" textLength="82" x="742" y="711.1904">activate = true</text><polygon fill="#A80036" points="259.5,768.5742,249.5,772.5742,259.5,776.5742,255.5,772.5742" style="stroke: #A80036; stroke-width: 1.0;"/><line style="stroke: #A80036; stroke-width: 1.0; stroke-dasharray: 2.0,2.0;" x1="253.5" x2="734" y1="772.5742" y2="772.5742"/><text fill="#000000" font-family="sans-serif" font-size="13" lengthAdjust="spacingAndGlyphs" textLength="192" x="265.5" y="767.7178">Another authentication Response</text><path d="M30,742.0469 L30,784.0469 L239,784.0469 L239,752.0469 L229,742.0469 L30,742.0469 " fill="#FBFB77" filter="url(#fhvqhu3u4cafa)" style="stroke: #A80036; stroke-width: 1.0;"/><path d="M229,742.0469 L229,752.0469 L239,752.0469 L229,742.0469 " fill="#FBFB77" style="stroke: #A80036; stroke-width: 1.0;"/><text fill="#000000" font-family="sans-serif" font-size="13" lengthAdjust="spacingAndGlyphs" textLength="160" x="36" y="760.542">User ที่ผ่านการ activate แล้ว</text><text fill="#000000" font-family="sans-serif" font-size="13" lengthAdjust="spacingAndGlyphs" textLength="188" x="36" y="776.8936">ครั้งหน้าสามารถ Authorize ได้เลย</text><rect fill="#EEEEEE" filter="url(#fhvqhu3u4cafa)" height="3" style="stroke: #EEEEEE; stroke-width: 1.0;" width="828" x="3" y="814.9258"/><line style="stroke: #000000; stroke-width: 1.0;" x1="3" x2="831" y1="814.9258" y2="814.9258"/><line style="stroke: #000000; stroke-width: 1.0;" x1="3" x2="831" y1="817.9258" y2="817.9258"/><rect fill="#EEEEEE" filter="url(#fhvqhu3u4cafa)" height="24.3516" style="stroke: #000000; stroke-width: 2.0;" width="79" x="377.5" y="803.75"/><text fill="#000000" font-family="sans-serif" font-size="13" font-weight="bold" lengthAdjust="spacingAndGlyphs" textLength="61" x="383.5" y="821.2451">Authorize</text><polygon fill="#A80036" points="460.5,885.9805,470.5,889.9805,460.5,893.9805,464.5,889.9805" style="stroke: #A80036; stroke-width: 1.0;"/><line style="stroke: #A80036; stroke-width: 1.0; stroke-dasharray: 2.0,2.0;" x1="248.5" x2="466.5" y1="889.9805" y2="889.9805"/><text fill="#000000" font-family="sans-serif" font-size="13" lengthAdjust="spacingAndGlyphs" textLength="135" x="255.5" y="885.124">Authentication Request</text><path d="M19,843.1016 L19,918.1016 L239,918.1016 L239,853.1016 L229,843.1016 L19,843.1016 " fill="#FBFB77" filter="url(#fhvqhu3u4cafa)" style="stroke: #A80036; stroke-width: 1.0;"/><path d="M229,843.1016 L229,853.1016 L239,853.1016 L229,843.1016 " fill="#FBFB77" style="stroke: #A80036; stroke-width: 1.0;"/><text fill="#000000" font-family="sans-serif" font-size="13" lengthAdjust="spacingAndGlyphs" textLength="4" x="25" y="861.5967">{</text><text fill="#000000" font-family="sans-serif" font-size="13" lengthAdjust="spacingAndGlyphs" textLength="141" x="33" y="877.9482">"username":"thanachai",</text><text fill="#000000" font-family="sans-serif" font-size="13" lengthAdjust="spacingAndGlyphs" textLength="191" x="33" y="894.2998">"password":"a1e6-4f63e8295160"</text><text fill="#000000" font-family="sans-serif" font-size="13" lengthAdjust="spacingAndGlyphs" textLength="4" x="25" y="910.6514">}</text><line style="stroke: #A80036; stroke-width: 1.0;" x1="472.5" x2="514.5" y1="966.2109" y2="966.2109"/><line style="stroke: #A80036; stroke-width: 1.0;" x1="514.5" x2="514.5" y1="966.2109" y2="979.2109"/><line style="stroke: #A80036; stroke-width: 1.0;" x1="473.5" x2="514.5" y1="979.2109" y2="979.2109"/><polygon fill="#A80036" points="483.5,975.2109,473.5,979.2109,483.5,983.2109,479.5,979.2109" style="stroke: #A80036; stroke-width: 1.0;"/><text fill="#000000" font-family="sans-serif" font-size="13" lengthAdjust="spacingAndGlyphs" textLength="128" x="479.5" y="945.0029">Check user is activate</text><text fill="#000000" font-family="sans-serif" font-size="13" lengthAdjust="spacingAndGlyphs" textLength="74" x="479.5" y="961.3545">activate=true</text><polygon fill="#A80036" points="259.5,1051.4414,249.5,1055.4414,259.5,1059.4414,255.5,1055.4414" style="stroke: #A80036; stroke-width: 1.0;"/><line style="stroke: #A80036; stroke-width: 1.0; stroke-dasharray: 2.0,2.0;" x1="253.5" x2="471.5" y1="1055.4414" y2="1055.4414"/><text fill="#000000" font-family="sans-serif" font-size="13" lengthAdjust="spacingAndGlyphs" textLength="192" x="265.5" y="1050.585">Another authentication Response</text><path d="M477,992.2109 L477,1100.2109 L617,1100.2109 L617,1002.2109 L607,992.2109 L477,992.2109 " fill="#FBFB77" filter="url(#fhvqhu3u4cafa)" style="stroke: #A80036; stroke-width: 1.0;"/><path d="M607,992.2109 L607,1002.2109 L617,1002.2109 L607,992.2109 " fill="#FBFB77" style="stroke: #A80036; stroke-width: 1.0;"/><text fill="#000000" font-family="sans-serif" font-size="13" lengthAdjust="spacingAndGlyphs" textLength="35" x="483" y="1010.7061">Token</text><text fill="#000000" font-family="sans-serif" font-size="13" lengthAdjust="spacingAndGlyphs" textLength="4" x="483" y="1027.0576">{</text><text fill="#000000" font-family="sans-serif" font-size="13" lengthAdjust="spacingAndGlyphs" textLength="111" x="491" y="1043.4092">"expireDate":"xxx",</text><text fill="#000000" font-family="sans-serif" font-size="13" lengthAdjust="spacingAndGlyphs" textLength="16" x="491" y="1059.7607">...,</text><text fill="#000000" font-family="sans-serif" font-size="13" lengthAdjust="spacingAndGlyphs" textLength="104" x="491" y="1076.1123">"token":"sdfsdfue"</text><text fill="#000000" font-family="sans-serif" font-size="13" lengthAdjust="spacingAndGlyphs" textLength="4" x="483" y="1092.4639">}</text><!--MD5=[96f85ddb471235e3ed4983a3d5013c71]
@startuml
actor User

== Authorize ==
User -> "Authorize service": Authentication Request
note left: ใช้ user ที่ยังไม่ได้ผ่านการ activate\n{\n  "username":"thanachai",\n  "password":"a1e6-4f63e8295160"\n}
"Authorize service" ->x "Authorize service": Check user is activate\nactivate=false
User x<- - "Authorize service": 403 Error authentication Response

== Activate User ==
User -> "OTP service": Request GET /otp endpoint with ADMIN token
note left: Header\nAuthorization: Bearer {ADMIN token}
"OTP service" -> "OTP service": Generate OTP\n with individal key.
"OTP service" - -> User: OTP number Response
note left: {\n  "otp":"123456"\n}
User -> "Activadte service": Authentication with otp
note left: {\n  "username":"thanachai",\n  "password":"a1e6-4f63e8295160",\n  "otp":"123456"\n}
"Activadte service" -> "Activadte service" : Set user\nactivate = true
User <- - "Activadte service": Another authentication Response
note left: User ที่ผ่านการ activate แล้ว\nครั้งหน้าสามารถ Authorize ได้เลย

== Authorize ==
User - -> "Authorize service": Authentication Request
note left: {\n  "username":"thanachai",\n  "password":"a1e6-4f63e8295160"\n}
"Authorize service" -> "Authorize service": Check user is activate\nactivate=true
User <- - "Authorize service": Another authentication Response
note right: Token\n{\n  "expireDate":"xxx",\n  ...,\n  "token":"sdfsdfue"\n}

@enduml

PlantUML version 1.2019.12(Sun Nov 03 17:24:54 ICT 2019)
(GPL source distribution)
Java Runtime: Java(TM) SE Runtime Environment
JVM: Java HotSpot(TM) 64-Bit Server VM
Java Version: 1.8.0_181-b13
Operating System: Windows 10
Default Encoding: MS874
Language: th
Country: TH
--></g></svg>