<?xml version="1.0" encoding="UTF-8" standalone="no"?><svg xmlns="http://www.w3.org/2000/svg" xmlns:xlink="http://www.w3.org/1999/xlink" contentScriptType="application/ecmascript" contentStyleType="text/css" height="228px" preserveAspectRatio="none" style="width:682px;height:228px;" version="1.1" viewBox="0 0 682 228" width="682px" zoomAndPan="magnify"><defs><filter height="300%" id="fhynqe2" width="300%" x="-1" y="-1"><feGaussianBlur result="blurOut" stdDeviation="2.0"/><feColorMatrix in="blurOut" result="blurOut2" type="matrix" values="0 0 0 0 0 0 0 0 0 0 0 0 0 0 0 0 0 0 .4 0"/><feOffset dx="4.0" dy="4.0" in="blurOut2" result="blurOut3"/><feBlend in="SourceGraphic" in2="blurOut3" mode="normal"/></filter></defs><g><line style="stroke: #A80036; stroke-width: 1.0; stroke-dasharray: 5.0,5.0;" x1="293" x2="293" y1="39.6094" y2="189.3672"/><line style="stroke: #A80036; stroke-width: 1.0; stroke-dasharray: 5.0,5.0;" x1="481" x2="481" y1="39.6094" y2="189.3672"/><rect fill="#FEFECE" filter="url(#fhynqe2)" height="31.6094" style="stroke: #A80036; stroke-width: 1.5;" width="50" x="266" y="3"/><text fill="#000000" font-family="sans-serif" font-size="14" lengthAdjust="spacingAndGlyphs" textLength="36" x="273" y="24.5332">Client</text><rect fill="#FEFECE" filter="url(#fhynqe2)" height="31.6094" style="stroke: #A80036; stroke-width: 1.5;" width="50" x="266" y="188.3672"/><text fill="#000000" font-family="sans-serif" font-size="14" lengthAdjust="spacingAndGlyphs" textLength="36" x="273" y="209.9004">Client</text><rect fill="#FEFECE" filter="url(#fhynqe2)" height="31.6094" style="stroke: #A80036; stroke-width: 1.5;" width="56" x="451" y="3"/><text fill="#000000" font-family="sans-serif" font-size="14" lengthAdjust="spacingAndGlyphs" textLength="42" x="458" y="24.5332">Server</text><rect fill="#FEFECE" filter="url(#fhynqe2)" height="31.6094" style="stroke: #A80036; stroke-width: 1.5;" width="56" x="451" y="188.3672"/><text fill="#000000" font-family="sans-serif" font-size="14" lengthAdjust="spacingAndGlyphs" textLength="42" x="458" y="209.9004">Server</text><polygon fill="#A80036" points="469,88.9609,479,92.9609,469,96.9609,473,92.9609" style="stroke: #A80036; stroke-width: 1.0;"/><line style="stroke: #A80036; stroke-width: 1.0;" x1="293" x2="475" y1="92.9609" y2="92.9609"/><text fill="#000000" font-family="sans-serif" font-size="13" lengthAdjust="spacingAndGlyphs" textLength="164" x="300" y="88.4561">Create organization Request</text><polygon fill="#FBFB77" filter="url(#fhynqe2)" points="8,54.6094,8,113.6094,284,113.6094,284,64.6094,274,54.6094,8,54.6094" style="stroke: #A80036; stroke-width: 1.0;"/><line style="stroke: #A80036; stroke-width: 1.0;" x1="274" x2="274" y1="54.6094" y2="64.6094"/><line style="stroke: #A80036; stroke-width: 1.0;" x1="284" x2="274" y1="64.6094" y2="64.6094"/><text fill="#000000" font-family="sans-serif" font-size="13" lengthAdjust="spacingAndGlyphs" textLength="107" x="14" y="73.1045">Organization Body</text><text fill="#000000" font-family="sans-serif" font-size="13" lengthAdjust="spacingAndGlyphs" textLength="162" x="18" y="89.4561">id: HEX character length 32.</text><text fill="#000000" font-family="sans-serif" font-size="13" lengthAdjust="spacingAndGlyphs" textLength="251" x="18" y="105.8076">users: Need one person is 'ADMIN' in roles.</text><polygon fill="#A80036" points="304,153.8398,294,157.8398,304,161.8398,300,157.8398" style="stroke: #A80036; stroke-width: 1.0;"/><line style="stroke: #A80036; stroke-width: 1.0; stroke-dasharray: 2.0,2.0;" x1="298" x2="480" y1="157.8398" y2="157.8398"/><text fill="#000000" font-family="sans-serif" font-size="13" lengthAdjust="spacingAndGlyphs" textLength="146" x="310" y="153.335">Create confirm Response</text><polygon fill="#FBFB77" filter="url(#fhynqe2)" points="486,127.6641,486,169.6641,673,169.6641,673,137.6641,663,127.6641,486,127.6641" style="stroke: #A80036; stroke-width: 1.0;"/><line style="stroke: #A80036; stroke-width: 1.0;" x1="663" x2="663" y1="127.6641" y2="137.6641"/><line style="stroke: #A80036; stroke-width: 1.0;" x1="673" x2="663" y1="137.6641" y2="137.6641"/><text fill="#000000" font-family="sans-serif" font-size="13" lengthAdjust="spacingAndGlyphs" textLength="107" x="492" y="146.1592">Organization Body</text><text fill="#000000" font-family="sans-serif" font-size="13" lengthAdjust="spacingAndGlyphs" textLength="162" x="496" y="162.5107">id: HEX character length 24.</text></g></svg>