<?xml version="1.0" encoding="UTF-8" standalone="no"?><svg xmlns="http://www.w3.org/2000/svg" xmlns:xlink="http://www.w3.org/1999/xlink" contentScriptType="application/ecmascript" contentStyleType="text/css" height="212px" preserveAspectRatio="none" style="width:593px;height:212px;" version="1.1" viewBox="0 0 593 212" width="593px" zoomAndPan="magnify"><defs><filter height="300%" id="ffrq589" width="300%" x="-1" y="-1"><feGaussianBlur result="blurOut" stdDeviation="2.0"/><feColorMatrix in="blurOut" result="blurOut2" type="matrix" values="0 0 0 0 0 0 0 0 0 0 0 0 0 0 0 0 0 0 .4 0"/><feOffset dx="4.0" dy="4.0" in="blurOut2" result="blurOut3"/><feBlend in="SourceGraphic" in2="blurOut3" mode="normal"/></filter></defs><g><line style="stroke: #A80036; stroke-width: 1.0; stroke-dasharray: 5.0,5.0;" x1="204" x2="204" y1="39.6094" y2="173.0156"/><line style="stroke: #A80036; stroke-width: 1.0; stroke-dasharray: 5.0,5.0;" x1="392" x2="392" y1="39.6094" y2="173.0156"/><rect fill="#FEFECE" filter="url(#ffrq589)" height="31.6094" style="stroke: #A80036; stroke-width: 1.5;" width="50" x="177" y="3"/><text fill="#000000" font-family="sans-serif" font-size="14" lengthAdjust="spacingAndGlyphs" textLength="36" x="184" y="24.5332">Client</text><rect fill="#FEFECE" filter="url(#ffrq589)" height="31.6094" style="stroke: #A80036; stroke-width: 1.5;" width="50" x="177" y="172.0156"/><text fill="#000000" font-family="sans-serif" font-size="14" lengthAdjust="spacingAndGlyphs" textLength="36" x="184" y="193.5488">Client</text><rect fill="#FEFECE" filter="url(#ffrq589)" height="31.6094" style="stroke: #A80036; stroke-width: 1.5;" width="56" x="362" y="3"/><text fill="#000000" font-family="sans-serif" font-size="14" lengthAdjust="spacingAndGlyphs" textLength="42" x="369" y="24.5332">Server</text><rect fill="#FEFECE" filter="url(#ffrq589)" height="31.6094" style="stroke: #A80036; stroke-width: 1.5;" width="56" x="362" y="172.0156"/><text fill="#000000" font-family="sans-serif" font-size="14" lengthAdjust="spacingAndGlyphs" textLength="42" x="369" y="193.5488">Server</text><polygon fill="#A80036" points="380,80.7852,390,84.7852,380,88.7852,384,84.7852" style="stroke: #A80036; stroke-width: 1.0;"/><line style="stroke: #A80036; stroke-width: 1.0;" x1="204" x2="386" y1="84.7852" y2="84.7852"/><text fill="#000000" font-family="sans-serif" font-size="13" lengthAdjust="spacingAndGlyphs" textLength="164" x="211" y="80.2803">Create organization Request</text><polygon fill="#FBFB77" filter="url(#ffrq589)" points="8,54.6094,8,96.6094,195,96.6094,195,64.6094,185,54.6094,8,54.6094" style="stroke: #A80036; stroke-width: 1.0;"/><line style="stroke: #A80036; stroke-width: 1.0;" x1="185" x2="185" y1="54.6094" y2="64.6094"/><line style="stroke: #A80036; stroke-width: 1.0;" x1="195" x2="185" y1="64.6094" y2="64.6094"/><text fill="#000000" font-family="sans-serif" font-size="13" lengthAdjust="spacingAndGlyphs" textLength="107" x="14" y="73.1045">Organization Body</text><text fill="#000000" font-family="sans-serif" font-size="13" lengthAdjust="spacingAndGlyphs" textLength="162" x="18" y="89.4561">id: HEX character length 32.</text><polygon fill="#A80036" points="215,137.4883,205,141.4883,215,145.4883,211,141.4883" style="stroke: #A80036; stroke-width: 1.0;"/><line style="stroke: #A80036; stroke-width: 1.0; stroke-dasharray: 2.0,2.0;" x1="209" x2="391" y1="141.4883" y2="141.4883"/><text fill="#000000" font-family="sans-serif" font-size="13" lengthAdjust="spacingAndGlyphs" textLength="146" x="221" y="136.9834">Create confirm Response</text><polygon fill="#FBFB77" filter="url(#ffrq589)" points="397,111.3125,397,153.3125,584,153.3125,584,121.3125,574,111.3125,397,111.3125" style="stroke: #A80036; stroke-width: 1.0;"/><line style="stroke: #A80036; stroke-width: 1.0;" x1="574" x2="574" y1="111.3125" y2="121.3125"/><line style="stroke: #A80036; stroke-width: 1.0;" x1="584" x2="574" y1="121.3125" y2="121.3125"/><text fill="#000000" font-family="sans-serif" font-size="13" lengthAdjust="spacingAndGlyphs" textLength="107" x="403" y="129.8076">Organization Body</text><text fill="#000000" font-family="sans-serif" font-size="13" lengthAdjust="spacingAndGlyphs" textLength="162" x="407" y="146.1592">id: HEX character length 24.</text></g></svg>