<?xml version="1.0" encoding="UTF-8" standalone="no"?><svg xmlns="http://www.w3.org/2000/svg" xmlns:xlink="http://www.w3.org/1999/xlink" contentScriptType="application/ecmascript" contentStyleType="text/css" height="325px" preserveAspectRatio="none" style="width:749px;height:325px;" version="1.1" viewBox="0 0 749 325" width="749px" zoomAndPan="magnify"><defs><filter height="300%" id="fpuilyuxdnq9i" width="300%" x="-1" y="-1"><feGaussianBlur result="blurOut" stdDeviation="2.0"/><feColorMatrix in="blurOut" result="blurOut2" type="matrix" values="0 0 0 0 0 0 0 0 0 0 0 0 0 0 0 0 0 0 .4 0"/><feOffset dx="4.0" dy="4.0" in="blurOut2" result="blurOut3"/><feBlend in="SourceGraphic" in2="blurOut3" mode="normal"/></filter></defs><g><line style="stroke: #A80036; stroke-width: 1.0; stroke-dasharray: 5.0,5.0;" x1="292" x2="292" y1="87.6094" y2="237.3672"/><line style="stroke: #A80036; stroke-width: 1.0; stroke-dasharray: 5.0,5.0;" x1="545" x2="545" y1="87.6094" y2="237.3672"/><text fill="#000000" font-family="sans-serif" font-size="14" lengthAdjust="spacingAndGlyphs" textLength="71" x="254" y="84.5332">Super User</text><ellipse cx="292.5" cy="13" fill="#FEFECE" filter="url(#fpuilyuxdnq9i)" rx="8" ry="8" style="stroke: #A80036; stroke-width: 2.0;"/><path d="M292.5,21 L292.5,48 M279.5,29 L305.5,29 M292.5,48 L279.5,63 M292.5,48 L305.5,63 " fill="none" filter="url(#fpuilyuxdnq9i)" style="stroke: #A80036; stroke-width: 2.0;"/><text fill="#000000" font-family="sans-serif" font-size="14" lengthAdjust="spacingAndGlyphs" textLength="71" x="254" y="250.9004">Super User</text><ellipse cx="292.5" cy="263.9766" fill="#FEFECE" filter="url(#fpuilyuxdnq9i)" rx="8" ry="8" style="stroke: #A80036; stroke-width: 2.0;"/><path d="M292.5,271.9766 L292.5,298.9766 M279.5,279.9766 L305.5,279.9766 M292.5,298.9766 L279.5,313.9766 M292.5,298.9766 L305.5,313.9766 " fill="none" filter="url(#fpuilyuxdnq9i)" style="stroke: #A80036; stroke-width: 2.0;"/><rect fill="#FEFECE" filter="url(#fpuilyuxdnq9i)" height="31.6094" style="stroke: #A80036; stroke-width: 1.5;" width="143" x="472" y="51"/><text fill="#000000" font-family="sans-serif" font-size="14" lengthAdjust="spacingAndGlyphs" textLength="129" x="479" y="72.5332">Organization service</text><rect fill="#FEFECE" filter="url(#fpuilyuxdnq9i)" height="31.6094" style="stroke: #A80036; stroke-width: 1.5;" width="143" x="472" y="236.3672"/><text fill="#000000" font-family="sans-serif" font-size="14" lengthAdjust="spacingAndGlyphs" textLength="129" x="479" y="257.9004">Organization service</text><polygon fill="#A80036" points="533.5,137.3125,543.5,141.3125,533.5,145.3125,537.5,141.3125" style="stroke: #A80036; stroke-width: 1.0;"/><line style="stroke: #A80036; stroke-width: 1.0;" x1="292.5" x2="539.5" y1="141.3125" y2="141.3125"/><text fill="#000000" font-family="sans-serif" font-size="13" lengthAdjust="spacingAndGlyphs" textLength="229" x="299.5" y="136.4561">Create organization Request POST /org</text><path d="M8,102.6094 L8,161.6094 L284,161.6094 L284,112.6094 L274,102.6094 L8,102.6094 " fill="#FBFB77" filter="url(#fpuilyuxdnq9i)" style="stroke: #A80036; stroke-width: 1.0;"/><path d="M274,102.6094 L274,112.6094 L284,112.6094 L274,102.6094 " fill="#FBFB77" style="stroke: #A80036; stroke-width: 1.0;"/><text fill="#000000" font-family="sans-serif" font-size="13" lengthAdjust="spacingAndGlyphs" textLength="107" x="14" y="121.1045">Organization Body</text><text fill="#000000" font-family="sans-serif" font-size="13" lengthAdjust="spacingAndGlyphs" textLength="162" x="18" y="137.4561">id: HEX character length 32.</text><text fill="#000000" font-family="sans-serif" font-size="13" lengthAdjust="spacingAndGlyphs" textLength="251" x="18" y="153.8076">users: Need one person is 'ADMIN' in roles.</text><polygon fill="#A80036" points="303.5,202.1914,293.5,206.1914,303.5,210.1914,299.5,206.1914" style="stroke: #A80036; stroke-width: 1.0;"/><line style="stroke: #A80036; stroke-width: 1.0; stroke-dasharray: 2.0,2.0;" x1="297.5" x2="544.5" y1="206.1914" y2="206.1914"/><text fill="#000000" font-family="sans-serif" font-size="13" lengthAdjust="spacingAndGlyphs" textLength="146" x="309.5" y="201.335">Create confirm Response</text><path d="M550,175.6641 L550,217.6641 L737,217.6641 L737,185.6641 L727,175.6641 L550,175.6641 " fill="#FBFB77" filter="url(#fpuilyuxdnq9i)" style="stroke: #A80036; stroke-width: 1.0;"/><path d="M727,175.6641 L727,185.6641 L737,185.6641 L727,175.6641 " fill="#FBFB77" style="stroke: #A80036; stroke-width: 1.0;"/><text fill="#000000" font-family="sans-serif" font-size="13" lengthAdjust="spacingAndGlyphs" textLength="107" x="556" y="194.1592">Organization Body</text><text fill="#000000" font-family="sans-serif" font-size="13" lengthAdjust="spacingAndGlyphs" textLength="162" x="560" y="210.5107">id: HEX character length 24.</text><!--MD5=[ac44140ba08dab9aeb9b390ea6b15e2a]
@startuml
actor "Super User" as User
User -> "Organization service": Create organization Request POST /org
note left: Organization Body\n id: HEX character length 32.\n users: Need one person is 'ADMIN' in roles.

"Organization service" - -> User: Create confirm Response
note right: Organization Body\n id: HEX character length 24.

@enduml

PlantUML version 1.2019.12(Sun Nov 03 17:24:54 ICT 2019)
(GPL source distribution)
Java Runtime: Java(TM) SE Runtime Environment
JVM: Java HotSpot(TM) 64-Bit Server VM
Java Version: 1.8.0_181-b13
Operating System: Windows 10
Default Encoding: MS874
Language: th
Country: TH
--></g></svg>