<?xml version="1.0" encoding="UTF-8" standalone="no"?><svg xmlns="http://www.w3.org/2000/svg" xmlns:xlink="http://www.w3.org/1999/xlink" contentScriptType="application/ecmascript" contentStyleType="text/css" height="467px" preserveAspectRatio="none" style="width:678px;height:467px;" version="1.1" viewBox="0 0 678 467" width="678px" zoomAndPan="magnify">
    <defs>
        <filter height="300%" id="f1bwgn3jsopsgv" width="300%" x="-1" y="-1">
            <feGaussianBlur result="blurOut" stdDeviation="2.0" />
            <feColorMatrix in="blurOut" result="blurOut2" type="matrix" values="0 0 0 0 0 0 0 0 0 0 0 0 0 0 0 0 0 0 .4 0" />
            <feOffset dx="4.0" dy="4.0" in="blurOut2" result="blurOut3" />
            <feBlend in="SourceGraphic" in2="blurOut3" mode="normal" />
        </filter>
    </defs>
    <g><text fill="#888888" font-family="sans-serif" font-size="10" lengthAdjust="spacingAndGlyphs" textLength="265" x="401" y="10.3809">กระบวนการ update entity หลักทั้งหมด จับคู่เข้ามาที่ละรายการ</text>
        <ellipse cx="267" cy="30.5781" fill="#000000" filter="url(#f1bwgn3jsopsgv)" rx="10" ry="10" style="stroke: none; stroke-width: 1.0;" />
        <polygon fill="#FEFECE" filter="url(#f1bwgn3jsopsgv)" points="267,81.5781,279,93.5781,267,105.5781,255,93.5781,267,81.5781" style="stroke: #A80036; stroke-width: 1.5;" />
        <rect fill="#FEFECE" filter="url(#f1bwgn3jsopsgv)" height="35.0938" rx="12.5" ry="12.5" style="stroke: #A80036; stroke-width: 1.5;" width="204" x="79" y="160.5781" /><text fill="#000000" font-family="sans-serif" font-size="12" lengthAdjust="spacingAndGlyphs" textLength="184" x="89" y="183.0352">Update data from cloud to jhcisdb</text>
        <rect fill="#FEFECE" filter="url(#f1bwgn3jsopsgv)" height="35.0938" rx="12.5" ry="12.5" style="stroke: #A80036; stroke-width: 1.5;" width="298" x="6" y="305.5781" /><text fill="#000000" font-family="sans-serif" font-size="12" lengthAdjust="spacingAndGlyphs" textLength="278" x="16" y="328.0352">อย่าลืม update jhcisdb timestamp และ isSync = true</text>
        <ellipse cx="329" cy="446.5781" fill="none" filter="url(#f1bwgn3jsopsgv)" rx="10" ry="10" style="stroke: #000000; stroke-width: 1.0;" />
        <ellipse cx="329.5" cy="447.0781" fill="#000000" rx="6" ry="6" style="stroke: none; stroke-width: 1.0;" />
        <polygon fill="#FEFECE" filter="url(#f1bwgn3jsopsgv)" points="329,166.0781,341,178.0781,329,190.0781,317,178.0781,329,166.0781" style="stroke: #A80036; stroke-width: 1.5;" />
        <rect fill="#FEFECE" filter="url(#f1bwgn3jsopsgv)" height="35.0938" rx="12.5" ry="12.5" style="stroke: #A80036; stroke-width: 1.5;" width="204" x="381" y="250.5781" /><text fill="#000000" font-family="sans-serif" font-size="12" lengthAdjust="spacingAndGlyphs" textLength="184" x="391" y="273.0352">Update data from jhcisdb to cloud</text>
        <rect fill="#FEFECE" filter="url(#f1bwgn3jsopsgv)" height="35.0938" rx="12.5" ry="12.5" style="stroke: #A80036; stroke-width: 1.5;" width="288" x="360" y="360.5781" /><text fill="#000000" font-family="sans-serif" font-size="12" lengthAdjust="spacingAndGlyphs" textLength="268" x="370" y="383.0352">อย่าลืม update cloud timestamp และ isSync = true</text>
        <!--MD5=[9e7bccaab94f33706b7c2613f3cc0026]
link start to #3-->
        <path d="M267,40.5791 C267,49.9201 267,64.7371 267,76.1681 " fill="none" id="start-&gt;#3" style="stroke: #A80036; stroke-width: 1.0;" />
        <polygon fill="#A80036" points="267,81.4691,271,72.4691,267,76.4691,263,72.4691,267,81.4691" style="stroke: #A80036; stroke-width: 1.0;" /><text fill="#000000" font-family="sans-serif" font-size="11" lengthAdjust="spacingAndGlyphs" textLength="136" x="111.025" y="74.5445">Timestamp (cloud &gt; airsync)</text>
        <!--MD5=[0a98cec4e4bc629e1f6175c380ff7b3e]
link #3 to Update data from cloud to jhcisdb-->
        <path d="M261.357,99.9911 C249.586,111.2831 221.883,137.8591 202.307,156.6381 " fill="none" id="#3-&gt;Update data from cloud to jhcisdb" style="stroke: #A80036; stroke-width: 1.0;" />
        <polygon fill="#A80036" points="198.507,160.2831,207.771,156.9396,202.1153,156.8219,202.233,151.1663,198.507,160.2831" style="stroke: #A80036; stroke-width: 1.0;" /><text fill="#000000" font-family="sans-serif" font-size="11" lengthAdjust="spacingAndGlyphs" textLength="19" x="236" y="137.9971">true</text>
        <!--MD5=[fbfbb117a47c9ede8d031921f74f5bca]
link Update data from cloud to jhcisdb to อย่าลืม update jhcisdb timestamp และ isSync = true-->
        <path d="M177.967,195.7621 C173.25,221.7021 164.16,271.6991 158.941,300.4001 " fill="none" id="Update data from cloud to jhcisdb-&gt;อย่าลืม update jhcisdb timestamp และ isSync = true" style="stroke: #A80036; stroke-width: 1.0;" />
        <polygon fill="#A80036" points="158.014,305.5001,163.5594,297.3608,158.9084,300.5808,155.6885,295.9298,158.014,305.5001" style="stroke: #A80036; stroke-width: 1.0;" />
        <!--MD5=[ead46586d486085e42299185676ad8e3]
link อย่าลืม update jhcisdb timestamp และ isSync = true to end-->
        <path d="M178.829,340.7171 C216.465,366.9979 288.322,417.1739 316.871,437.1085 " fill="none" id="อย่าลืม update jhcisdb timestamp และ isSync = true-&gt;end" style="stroke: #A80036; stroke-width: 1.0;" />
        <polygon fill="#A80036" points="321.069,440.0399,315.9804,431.6075,316.9697,437.1771,311.4,438.1664,321.069,440.0399" style="stroke: #A80036; stroke-width: 1.0;" />
        <!--MD5=[653d71ef0c6de7c92ea61ee82acbaf41]
link #3 to #12-->
        <path d="M271.865,101.0521 C282.497,115.1991 307.893,148.9921 320.949,166.3641 " fill="none" id="#3-&gt;#12" style="stroke: #A80036; stroke-width: 1.0;" />
        <polygon fill="#A80036" points="323.985,170.4051,321.7751,160.8074,320.9809,166.4082,315.3801,165.614,323.985,170.4051" style="stroke: #A80036; stroke-width: 1.0;" /><text fill="#000000" font-family="sans-serif" font-size="11" lengthAdjust="spacingAndGlyphs" textLength="136" x="348.7853" y="163.408">Timestamp (cloud &lt; airsync)</text>
        <!--MD5=[80e818ce979263736e427788922fc125]
link #12 to Update data from jhcisdb to cloud-->
        <path d="M336.017,183.0881 C355.751,194.3641 412.695,226.9041 449.636,248.0131 " fill="none" id="#12-&gt;Update data from jhcisdb to cloud" style="stroke: #A80036; stroke-width: 1.0;" />
        <polygon fill="#A80036" points="454.038,250.5281,448.2072,242.5907,449.6964,248.048,444.2391,249.5372,454.038,250.5281" style="stroke: #A80036; stroke-width: 1.0;" /><text fill="#000000" font-family="sans-serif" font-size="11" lengthAdjust="spacingAndGlyphs" textLength="19" x="416" y="227.9971">true</text>
        <!--MD5=[ca25a593aaa93099cce11f5de38442e7]
link Update data from jhcisdb to cloud to อย่าลืม update cloud timestamp และ isSync = true-->
        <path d="M486.281,285.9531 C489.918,304.6571 495.795,334.8801 499.774,355.3421 " fill="none" id="Update data from jhcisdb to cloud-&gt;อย่าลืม update cloud timestamp และ isSync = true" style="stroke: #A80036; stroke-width: 1.0;" />
        <polygon fill="#A80036" points="500.742,360.3216,502.9504,350.7236,499.7875,355.4136,495.0975,352.2507,500.742,360.3216" style="stroke: #A80036; stroke-width: 1.0;" />
        <!--MD5=[5be6b86372b1eaf0fb7b9767249b7d4f]
link อย่าลืม update cloud timestamp และ isSync = true to end-->
        <path d="M460.292,395.6873 C421.918,410.2691 368.406,430.6039 343.2,440.182 " fill="none" id="อย่าลืม update cloud timestamp และ isSync = true-&gt;end" style="stroke: #A80036; stroke-width: 1.0;" />
        <polygon fill="#A80036" points="338.267,442.0567,348.1009,442.5996,342.9411,440.281,345.2597,435.1212,338.267,442.0567" style="stroke: #A80036; stroke-width: 1.0;" />
        <!--MD5=[3215c6e5f759668b0e66541ff9c6c207]
link #12 to end-->
        <path d="M329,190.1901 C329,232.5041 329,383.5687 329,431.131 " fill="none" id="#12-&gt;end" style="stroke: #A80036; stroke-width: 1.0;" />
        <polygon fill="#A80036" points="329,436.404,333,427.404,329,431.404,325,427.404,329,436.404" style="stroke: #A80036; stroke-width: 1.0;" /><text fill="#000000" font-family="sans-serif" font-size="11" lengthAdjust="spacingAndGlyphs" textLength="24" x="330" y="327.9971">false</text>
        <!--MD5=[44779d6e1e4e74debd0fd188b7f4ed30]
@startuml
header กระบวนการ update entity หลักทั้งหมด จับคู่เข้ามาที่ละรายการ

  (*) - -> if "Timestamp (cloud > airsync)"
          - -> [true]  "Update data from cloud to jhcisdb"
          - -> "อย่าลืม update jhcisdb timestamp และ isSync = true"
          - -> (*)
        else
          - -> if "Timestamp (cloud < airsync)"
                - -> [true] "Update data from jhcisdb to cloud"
                - -> "อย่าลืม update cloud timestamp และ isSync = true"
                - -> (*)
              else
                - -> [false] (*)
              endif
        endif
@enduml

PlantUML version 1.2020.02(Sun Mar 01 17:22:07 ICT 2020)
(GPL source distribution)
Java Runtime: Java(TM) SE Runtime Environment
JVM: Java HotSpot(TM) 64-Bit Server VM
Java Version: 1.8.0_181-b13
Operating System: Windows 10
Default Encoding: MS874
Language: en
Country: US
-->
    </g>
</svg>