<?xml version="1.0" encoding="UTF-8" standalone="no"?><svg xmlns="http://www.w3.org/2000/svg" xmlns:xlink="http://www.w3.org/1999/xlink" contentScriptType="application/ecmascript" contentStyleType="text/css" height="775px" preserveAspectRatio="none" style="width:852px;height:775px;" version="1.1" viewBox="0 0 852 775" width="852px" zoomAndPan="magnify"><defs><filter height="300%" id="fz1c3eze7h07c" width="300%" x="-1" y="-1"><feGaussianBlur result="blurOut" stdDeviation="2.0"/><feColorMatrix in="blurOut" result="blurOut2" type="matrix" values="0 0 0 0 0 0 0 0 0 0 0 0 0 0 0 0 0 0 .4 0"/><feOffset dx="4.0" dy="4.0" in="blurOut2" result="blurOut3"/><feBlend in="SourceGraphic" in2="blurOut3" mode="normal"/></filter></defs><g><!--MD5=[188769e720c9586de09488ce5af680bb]
cluster Not authorize--><rect fill="#FFFFFF" filter="url(#fz1c3eze7h07c)" height="230" style="stroke: #000000; stroke-width: 1.5;" width="214" x="254" y="24"/><text fill="#000000" font-family="sans-serif" font-size="14" font-weight="bold" lengthAdjust="spacingAndGlyphs" textLength="94" x="314" y="40.5332">Not authorize</text><!--MD5=[0c5d8a8a37e8280f8994678579828a25]
cluster Authorize--><rect fill="#FFFFFF" filter="url(#fz1c3eze7h07c)" height="486" style="stroke: #000000; stroke-width: 1.5;" width="185" x="268.5" y="278"/><text fill="#000000" font-family="sans-serif" font-size="14" font-weight="bold" lengthAdjust="spacingAndGlyphs" textLength="67" x="327.5" y="294.5332">Authorize</text><ellipse cx="360.8297" cy="81.0659" fill="#FEFECE" filter="url(#fz1c3eze7h07c)" rx="90.8297" ry="20.5659" style="stroke: #A80036; stroke-width: 1.5;"/><text fill="#000000" font-family="sans-serif" font-size="14" lengthAdjust="spacingAndGlyphs" textLength="152" x="284.8297" y="86.3706">Homehealth type lookup</text><ellipse cx="361.1041" cy="151.9517" fill="#FEFECE" filter="url(#fz1c3eze7h07c)" rx="63.1041" ry="15.4517" style="stroke: #A80036; stroke-width: 1.5;"/><text fill="#000000" font-family="sans-serif" font-size="14" lengthAdjust="spacingAndGlyphs" textLength="85" x="318.6041" y="157.2564">ICD10 lookup</text><ellipse cx="361.0213" cy="219.9043" fill="#FEFECE" filter="url(#fz1c3eze7h07c)" rx="75.0213" ry="17.4043" style="stroke: #A80036; stroke-width: 1.5;"/><text fill="#000000" font-family="sans-serif" font-size="14" lengthAdjust="spacingAndGlyphs" textLength="114" x="304.0213" y="225.2089">Special PP lookup</text><ellipse cx="361.0685" cy="329.9517" fill="#FEFECE" filter="url(#fz1c3eze7h07c)" rx="59.5685" ry="15.4517" style="stroke: #A80036; stroke-width: 1.5;"/><text fill="#000000" font-family="sans-serif" font-size="14" lengthAdjust="spacingAndGlyphs" textLength="80" x="321.0685" y="335.2564">Organization</text><ellipse cx="361.0061" cy="395.9517" fill="#FEFECE" filter="url(#fz1c3eze7h07c)" rx="23.5061" ry="15.4517" style="stroke: #A80036; stroke-width: 1.5;"/><text fill="#000000" font-family="sans-serif" font-size="14" lengthAdjust="spacingAndGlyphs" textLength="29" x="346.5061" y="401.2564">User</text><ellipse cx="361.1985" cy="461.9517" fill="#FEFECE" filter="url(#fz1c3eze7h07c)" rx="32.6985" ry="15.4517" style="stroke: #A80036; stroke-width: 1.5;"/><text fill="#000000" font-family="sans-serif" font-size="14" lengthAdjust="spacingAndGlyphs" textLength="42" x="340.1985" y="467.2564">Village</text><ellipse cx="360.7843" cy="527.9517" fill="#FEFECE" filter="url(#fz1c3eze7h07c)" rx="31.2843" ry="15.4517" style="stroke: #A80036; stroke-width: 1.5;"/><text fill="#000000" font-family="sans-serif" font-size="14" lengthAdjust="spacingAndGlyphs" textLength="40" x="340.7843" y="533.2564">House</text><ellipse cx="360.8198" cy="593.9517" fill="#FEFECE" filter="url(#fz1c3eze7h07c)" rx="34.8198" ry="15.4517" style="stroke: #A80036; stroke-width: 1.5;"/><text fill="#000000" font-family="sans-serif" font-size="14" lengthAdjust="spacingAndGlyphs" textLength="45" x="338.3198" y="599.2564">Person</text><ellipse cx="361.1143" cy="662.2229" fill="#FEFECE" filter="url(#fz1c3eze7h07c)" rx="76.6143" ry="17.7229" style="stroke: #A80036; stroke-width: 1.5;"/><text fill="#000000" font-family="sans-serif" font-size="14" lengthAdjust="spacingAndGlyphs" textLength="118" x="302.1143" y="667.5275">HealthCareService</text><ellipse cx="361.0151" cy="731.203" fill="#FEFECE" filter="url(#fz1c3eze7h07c)" rx="71.5151" ry="16.703" style="stroke: #A80036; stroke-width: 1.5;"/><text fill="#000000" font-family="sans-serif" font-size="14" lengthAdjust="spacingAndGlyphs" textLength="105" x="308.5151" y="736.5077">Template lookup</text><!--MD5=[4166c2533998e538f16711cc7763c23c]
entity Dev--><ellipse cx="195.5" cy="397" fill="#FEFECE" filter="url(#fz1c3eze7h07c)" rx="8" ry="8" style="stroke: #A80036; stroke-width: 1.5;"/><path d="M195.5,405 L195.5,432 M182.5,413 L208.5,413 M195.5,432 L182.5,447 M195.5,432 L208.5,447 " fill="none" filter="url(#fz1c3eze7h07c)" style="stroke: #A80036; stroke-width: 1.5;"/><text fill="#000000" font-family="sans-serif" font-size="14" lengthAdjust="spacingAndGlyphs" textLength="29" x="181" y="467.0332">User</text><path d="M6,391.5 L6,466.9063 A0,0 0 0 0 6,466.9063 L121,466.9063 A0,0 0 0 0 121,466.9063 L121,433 L180.793,429 L121,425 L121,401.5 L111,391.5 L6,391.5 A0,0 0 0 0 6,391.5 " fill="#FBFB77" filter="url(#fz1c3eze7h07c)" style="stroke: #A80036; stroke-width: 1.0;"/><path d="M111,391.5 L111,401.5 L121,401.5 L111,391.5 " fill="#FBFB77" style="stroke: #A80036; stroke-width: 1.0;"/><text fill="#000000" font-family="sans-serif" font-size="13" lengthAdjust="spacingAndGlyphs" textLength="43" x="12" y="409.9951">Maybe:</text><text fill="#000000" font-family="sans-serif" font-size="13" lengthAdjust="spacingAndGlyphs" textLength="60" x="20" y="426.3467">Developer.</text><text fill="#000000" font-family="sans-serif" font-size="13" lengthAdjust="spacingAndGlyphs" textLength="80" x="20" y="442.6982">Other service.</text><text fill="#000000" font-family="sans-serif" font-size="13" lengthAdjust="spacingAndGlyphs" textLength="86" x="20" y="459.0498">Other platform.</text><path d="M555,52.5 L555,72.685 L451.693,78.994 L555,80.685 L555,95.2031 A0,0 0 0 0 555,95.2031 L797,95.2031 A0,0 0 0 0 797,95.2031 L797,62.5 L787,52.5 L555,52.5 A0,0 0 0 0 555,52.5 " fill="#FBFB77" filter="url(#fz1c3eze7h07c)" style="stroke: #A80036; stroke-width: 1.0;"/><path d="M787,52.5 L787,62.5 L797,62.5 L787,52.5 " fill="#FBFB77" style="stroke: #A80036; stroke-width: 1.0;"/><text fill="#000000" font-family="sans-serif" font-size="13" lengthAdjust="spacingAndGlyphs" textLength="150" x="561" y="70.9951">รหัสอ้างอิงประเภทการเยี่ยม</text><text fill="#000000" font-family="sans-serif" font-size="13" lengthAdjust="spacingAndGlyphs" textLength="213" x="569" y="87.3467">1A000 เยี่ยมผู้ป่วยโรคความดันโลหิตสูง</text><path d="M549,130.5 L549,148 L424.213,152 L549,156 L549,173.2031 A0,0 0 0 0 549,173.2031 L803,173.2031 A0,0 0 0 0 803,173.2031 L803,140.5 L793,130.5 L549,130.5 A0,0 0 0 0 549,130.5 " fill="#FBFB77" filter="url(#fz1c3eze7h07c)" style="stroke: #A80036; stroke-width: 1.0;"/><path d="M793,130.5 L793,140.5 L803,140.5 L793,130.5 " fill="#FBFB77" style="stroke: #A80036; stroke-width: 1.0;"/><text fill="#000000" font-family="sans-serif" font-size="13" lengthAdjust="spacingAndGlyphs" textLength="233" x="555" y="148.9951">รหัสอ้างอิงรายการโรคตามมาตฐาน ICD10</text><text fill="#000000" font-family="sans-serif" font-size="13" lengthAdjust="spacingAndGlyphs" textLength="95" x="563" y="165.3467">A00 อหิวาตกโรค</text><path d="M512,208.5 L512,220.788 L435.385,222.345 L512,228.788 L512,251.2031 A0,0 0 0 0 512,251.2031 L840,251.2031 A0,0 0 0 0 840,251.2031 L840,218.5 L830,208.5 L512,208.5 A0,0 0 0 0 512,208.5 " fill="#FBFB77" filter="url(#fz1c3eze7h07c)" style="stroke: #A80036; stroke-width: 1.0;"/><path d="M830,208.5 L830,218.5 L840,218.5 L830,208.5 " fill="#FBFB77" style="stroke: #A80036; stroke-width: 1.0;"/><text fill="#000000" font-family="sans-serif" font-size="13" lengthAdjust="spacingAndGlyphs" textLength="178" x="518" y="226.9951">รหัสบริการส่งเสริมป้องกันเฉพาะ</text><text fill="#000000" font-family="sans-serif" font-size="13" lengthAdjust="spacingAndGlyphs" textLength="299" x="526" y="243.3467">1B140 การตรวจคัดกรองโรคซึมเศร้าในหญิงตั้งครรภ...</text><path d="M549,366.5 L549,392 L384.51,396 L549,400 L549,425.5547 A0,0 0 0 0 549,425.5547 L803,425.5547 A0,0 0 0 0 803,425.5547 L803,376.5 L793,366.5 L549,366.5 A0,0 0 0 0 549,366.5 " fill="#FBFB77" filter="url(#fz1c3eze7h07c)" style="stroke: #A80036; stroke-width: 1.0;"/><path d="M793,366.5 L793,376.5 L803,376.5 L793,366.5 " fill="#FBFB77" style="stroke: #A80036; stroke-width: 1.0;"/><text fill="#000000" font-family="sans-serif" font-size="13" lengthAdjust="spacingAndGlyphs" textLength="204" x="555" y="384.9951">ข้อมูลเจ้าหน้าที่ ที่ใช้งานระบบ รวมถึง</text><text fill="#000000" font-family="sans-serif" font-size="13" lengthAdjust="spacingAndGlyphs" textLength="217" x="555" y="401.3467">กระบวนการยืนยันตัวตน เพื่อ Authorize</text><text fill="#000000" font-family="sans-serif" font-size="13" lengthAdjust="spacingAndGlyphs" textLength="233" x="555" y="417.6982">ขอ token ในการขอเข้าถึง API ที่ป้องกันไว้</text><path d="M554,701.5 L554,727 L432.634,731 L554,735 L554,760.5547 A0,0 0 0 0 554,760.5547 L798,760.5547 A0,0 0 0 0 798,760.5547 L798,711.5 L788,701.5 L554,701.5 A0,0 0 0 0 554,701.5 " fill="#FBFB77" filter="url(#fz1c3eze7h07c)" style="stroke: #A80036; stroke-width: 1.0;"/><path d="M788,701.5 L788,711.5 L798,711.5 L788,701.5 " fill="#FBFB77" style="stroke: #A80036; stroke-width: 1.0;"/><text fill="#000000" font-family="sans-serif" font-size="13" lengthAdjust="spacingAndGlyphs" textLength="195" x="560" y="719.9951">ชุดข้อมูล สำหรับใช้ในการช่วยกรอก</text><text fill="#000000" font-family="sans-serif" font-size="13" lengthAdjust="spacingAndGlyphs" textLength="187" x="560" y="736.3467">โดยในแต่ละ Organization จะมีชุด</text><text fill="#000000" font-family="sans-serif" font-size="13" lengthAdjust="spacingAndGlyphs" textLength="223" x="560" y="752.6982">Template ที่อาจจะเหมือ หรือ ต่างกันก็ได้</text><!--MD5=[5864e684aec9d5652e9e076b45f4877e]
link Dev to Homehealth type lookup--><path d="M197.913,387.457 C201.286,312.518 212.234,158.789 246,119 C256.394,106.752 270.849,98.434 285.981,92.79 " fill="none" id="Dev-Homehealth type lookup" style="stroke: #A80036; stroke-width: 1.0;"/><!--MD5=[bef4a583ad217e4d1c0d38eb508a2048]
link Dev to ICD10 lookup--><path d="M199.788,387.382 C205.495,325.659 219.271,214.004 246,185 C260.102,169.697 280.822,161.332 300.742,156.813 " fill="none" id="Dev-ICD10 lookup" style="stroke: #A80036; stroke-width: 1.0;"/><!--MD5=[be959c51f1f37560726c5a1f7b0ed5e6]
link Dev to Special PP lookup--><path d="M205.303,387.374 C212.691,359.866 225.42,324.19 246,298 C267.558,270.564 301.437,249.119 326.666,235.717 " fill="none" id="Dev-Special PP lookup" style="stroke: #A80036; stroke-width: 1.0;"/><!--MD5=[1fd00bf858a38de3fe19baea5d3d4dae]
link Dev to Organization--><path d="M210.139,403.489 C218.734,389.663 231.034,373.339 246,363 C264.478,350.235 287.888,342.358 308.68,337.52 " fill="none" id="Dev-Organization" style="stroke: #A80036; stroke-width: 1.0;"/><!--MD5=[b02918b806bd479509cbde2be86c6c74]
link Dev to User--><path d="M210.159,426.243 C238.556,420.512 304.162,407.27 338.369,400.366 " fill="none" id="Dev-User" style="stroke: #A80036; stroke-width: 1.0;"/><!--MD5=[93dd024a78b4fcdd645019610ff46e50]
link Dev to Village--><path d="M210.159,431.757 C236.56,437.086 295.126,448.906 330.716,456.09 " fill="none" id="Dev-Village" style="stroke: #A80036; stroke-width: 1.0;"/><!--MD5=[55caa24c7e059b5a63309df6bc29c7ac]
link Dev to House--><path d="M210.139,454.511 C218.734,468.337 231.034,484.661 246,495 C271.259,512.449 305.734,520.766 330.14,524.669 " fill="none" id="Dev-House" style="stroke: #A80036; stroke-width: 1.0;"/><!--MD5=[9abb2edbb7f419b79cce53c09e405f5b]
link Dev to Person--><path d="M202.162,470.787 C208.232,499.893 220.677,537.555 246,561 C267.772,581.157 301.121,589.079 326.134,592.152 " fill="none" id="Dev-Person" style="stroke: #A80036; stroke-width: 1.0;"/><!--MD5=[3db95b7f5073f03008ba472e0f58ccbd]
link Dev to HealthCareService--><path d="M202.085,470.931 C209.718,522.157 224.908,604.762 246,627 C258.538,640.219 275.926,648.486 293.349,653.643 " fill="none" id="Dev-HealthCareService" style="stroke: #A80036; stroke-width: 1.0;"/><!--MD5=[58a6279118fa56269fb180aa5bd49c92]
link Dev to Template lookup--><path d="M198.965,470.543 C203.755,537.281 216.558,664.219 246,697 C258.697,711.1362 276.991,719.5031 295.219,724.4217 " fill="none" id="Dev-Template lookup" style="stroke: #A80036; stroke-width: 1.0;"/><!--MD5=[71f183a528b127bcd1563492ca80b4cf]
@startuml
left to right direction

:User: as Dev
note left of Dev
Maybe:
  Developer.
  Other service.
  Other platform.
end note

rectangle "Not authorize" {
  Dev - - (Homehealth type lookup)
  Dev - - (ICD10 lookup)
  Dev - - (Special PP lookup)
}

note right of (Homehealth type lookup)
รหัสอ้างอิงประเภทการเยี่ยม
  1A000 เยี่ยมผู้ป่วยโรคความดันโลหิตสูง
endnote

note right of (ICD10 lookup)
รหัสอ้างอิงรายการโรคตามมาตฐาน ICD10
  A00 อหิวาตกโรค
endnote

note right of (Special PP lookup)
รหัสบริการส่งเสริมป้องกันเฉพาะ
  1B140 การตรวจคัดกรองโรคซึมเศร้าในหญิงตั้งครรภ...
endnote

rectangle Authorize {
  Dev - - (Organization)
  Dev - - (User)
  Dev - - (Village)
  Dev - - (House)
  Dev - - (Person)
  Dev - - (HealthCareService)
  Dev - - (Template lookup)
}

note right of (User)
ข้อมูลเจ้าหน้าที่ ที่ใช้งานระบบ รวมถึง
กระบวนการยืนยันตัวตน เพื่อ Authorize
ขอ token ในการขอเข้าถึง API ที่ป้องกันไว้
endnote

note right of (Template lookup)
ชุดข้อมูล สำหรับใช้ในการช่วยกรอก
โดยในแต่ละ Organization จะมีชุด
Template ที่อาจจะเหมือ หรือ ต่างกันก็ได้
endnote

@enduml

PlantUML version 1.2020.02(Sun Mar 01 17:22:07 ICT 2020)
(GPL source distribution)
Java Runtime: Java(TM) SE Runtime Environment
JVM: Java HotSpot(TM) 64-Bit Server VM
Java Version: 1.8.0_181-b13
Operating System: Windows 10
Default Encoding: MS874
Language: en
Country: US
--></g></svg>