<?xml version="1.0" encoding="UTF-8" standalone="no"?><svg xmlns="http://www.w3.org/2000/svg" xmlns:xlink="http://www.w3.org/1999/xlink" contentScriptType="application/ecmascript" contentStyleType="text/css" height="775px" preserveAspectRatio="none" style="width:853px;height:775px;" version="1.1" viewBox="0 0 853 775" width="853px" zoomAndPan="magnify"><defs><filter height="300%" id="f7b1na3vngrhd" width="300%" x="-1" y="-1"><feGaussianBlur result="blurOut" stdDeviation="2.0"/><feColorMatrix in="blurOut" result="blurOut2" type="matrix" values="0 0 0 0 0 0 0 0 0 0 0 0 0 0 0 0 0 0 .4 0"/><feOffset dx="4.0" dy="4.0" in="blurOut2" result="blurOut3"/><feBlend in="SourceGraphic" in2="blurOut3" mode="normal"/></filter></defs><g><!--MD5=[188769e720c9586de09488ce5af680bb]
cluster Not authorize--><rect fill="#FFFFFF" filter="url(#f7b1na3vngrhd)" height="230" style="stroke: #000000; stroke-width: 1.5;" width="214" x="255" y="24"/><text fill="#000000" font-family="sans-serif" font-size="14" font-weight="bold" lengthAdjust="spacingAndGlyphs" textLength="94" x="315" y="40.5332">Not authorize</text><!--MD5=[0c5d8a8a37e8280f8994678579828a25]
cluster Authorize--><rect fill="#FFFFFF" filter="url(#f7b1na3vngrhd)" height="486" style="stroke: #000000; stroke-width: 1.5;" width="185" x="269.5" y="278"/><text fill="#000000" font-family="sans-serif" font-size="14" font-weight="bold" lengthAdjust="spacingAndGlyphs" textLength="67" x="328.5" y="294.5332">Authorize</text><ellipse cx="361.8297" cy="81.0659" fill="#FEFECE" filter="url(#f7b1na3vngrhd)" rx="90.8297" ry="20.5659" style="stroke: #A80036; stroke-width: 1.5;"/><text fill="#000000" font-family="sans-serif" font-size="14" lengthAdjust="spacingAndGlyphs" textLength="152" x="285.8297" y="86.3706">Homehealth type lookup</text><ellipse cx="362.1041" cy="151.9517" fill="#FEFECE" filter="url(#f7b1na3vngrhd)" rx="63.1041" ry="15.4517" style="stroke: #A80036; stroke-width: 1.5;"/><text fill="#000000" font-family="sans-serif" font-size="14" lengthAdjust="spacingAndGlyphs" textLength="85" x="319.6041" y="157.2564">ICD10 lookup</text><ellipse cx="362.0213" cy="219.9043" fill="#FEFECE" filter="url(#f7b1na3vngrhd)" rx="75.0213" ry="17.4043" style="stroke: #A80036; stroke-width: 1.5;"/><text fill="#000000" font-family="sans-serif" font-size="14" lengthAdjust="spacingAndGlyphs" textLength="114" x="305.0213" y="225.2089">Special PP lookup</text><ellipse cx="362.0685" cy="329.9517" fill="#FEFECE" filter="url(#f7b1na3vngrhd)" rx="59.5685" ry="15.4517" style="stroke: #A80036; stroke-width: 1.5;"/><text fill="#000000" font-family="sans-serif" font-size="14" lengthAdjust="spacingAndGlyphs" textLength="80" x="322.0685" y="335.2564">Organization</text><ellipse cx="362.0061" cy="395.9517" fill="#FEFECE" filter="url(#f7b1na3vngrhd)" rx="23.5061" ry="15.4517" style="stroke: #A80036; stroke-width: 1.5;"/><text fill="#000000" font-family="sans-serif" font-size="14" lengthAdjust="spacingAndGlyphs" textLength="29" x="347.5061" y="401.2564">User</text><ellipse cx="362.1985" cy="461.9517" fill="#FEFECE" filter="url(#f7b1na3vngrhd)" rx="32.6985" ry="15.4517" style="stroke: #A80036; stroke-width: 1.5;"/><text fill="#000000" font-family="sans-serif" font-size="14" lengthAdjust="spacingAndGlyphs" textLength="42" x="341.1985" y="467.2564">Village</text><ellipse cx="361.7843" cy="527.9517" fill="#FEFECE" filter="url(#f7b1na3vngrhd)" rx="31.2843" ry="15.4517" style="stroke: #A80036; stroke-width: 1.5;"/><text fill="#000000" font-family="sans-serif" font-size="14" lengthAdjust="spacingAndGlyphs" textLength="40" x="341.7843" y="533.2564">House</text><ellipse cx="361.8198" cy="593.9517" fill="#FEFECE" filter="url(#f7b1na3vngrhd)" rx="34.8198" ry="15.4517" style="stroke: #A80036; stroke-width: 1.5;"/><text fill="#000000" font-family="sans-serif" font-size="14" lengthAdjust="spacingAndGlyphs" textLength="45" x="339.3198" y="599.2564">Person</text><ellipse cx="362.1143" cy="662.2229" fill="#FEFECE" filter="url(#f7b1na3vngrhd)" rx="76.6143" ry="17.7229" style="stroke: #A80036; stroke-width: 1.5;"/><text fill="#000000" font-family="sans-serif" font-size="14" lengthAdjust="spacingAndGlyphs" textLength="118" x="303.1143" y="667.5275">HealthCareService</text><ellipse cx="362.0151" cy="731.203" fill="#FEFECE" filter="url(#f7b1na3vngrhd)" rx="71.5151" ry="16.703" style="stroke: #A80036; stroke-width: 1.5;"/><text fill="#000000" font-family="sans-serif" font-size="14" lengthAdjust="spacingAndGlyphs" textLength="105" x="309.5151" y="736.5077">Template lookup</text><!--MD5=[4166c2533998e538f16711cc7763c23c]
entity Dev--><ellipse cx="196" cy="396.5" fill="#FEFECE" filter="url(#f7b1na3vngrhd)" rx="8" ry="8" style="stroke: #A80036; stroke-width: 2.0;"/><path d="M196,404.5 L196,431.5 M183,412.5 L209,412.5 M196,431.5 L183,446.5 M196,431.5 L209,446.5 " fill="none" filter="url(#f7b1na3vngrhd)" style="stroke: #A80036; stroke-width: 2.0;"/><text fill="#000000" font-family="sans-serif" font-size="14" lengthAdjust="spacingAndGlyphs" textLength="25" x="183.5" y="468.0332">Dev</text><path d="M6,399.5 L6,458.5547 A0,0 0 0 0 6,458.5547 L121,458.5547 A0,0 0 0 0 121,458.5547 L121,433 L180.972,429 L121,425 L121,409.5 L111,399.5 L6,399.5 A0,0 0 0 0 6,399.5 " fill="#FBFB77" filter="url(#f7b1na3vngrhd)" style="stroke: #A80036; stroke-width: 1.0;"/><path d="M111,399.5 L111,409.5 L121,409.5 L111,399.5 " fill="#FBFB77" style="stroke: #A80036; stroke-width: 1.0;"/><text fill="#000000" font-family="sans-serif" font-size="13" lengthAdjust="spacingAndGlyphs" textLength="43" x="12" y="417.9951">Maybe:</text><text fill="#000000" font-family="sans-serif" font-size="13" lengthAdjust="spacingAndGlyphs" textLength="80" x="20" y="434.3467">Other service.</text><text fill="#000000" font-family="sans-serif" font-size="13" lengthAdjust="spacingAndGlyphs" textLength="86" x="20" y="450.6982">Other platform.</text><path d="M556,52.5 L556,72.685 L452.693,78.994 L556,80.685 L556,95.2031 A0,0 0 0 0 556,95.2031 L798,95.2031 A0,0 0 0 0 798,95.2031 L798,62.5 L788,52.5 L556,52.5 A0,0 0 0 0 556,52.5 " fill="#FBFB77" filter="url(#f7b1na3vngrhd)" style="stroke: #A80036; stroke-width: 1.0;"/><path d="M788,52.5 L788,62.5 L798,62.5 L788,52.5 " fill="#FBFB77" style="stroke: #A80036; stroke-width: 1.0;"/><text fill="#000000" font-family="sans-serif" font-size="13" lengthAdjust="spacingAndGlyphs" textLength="191" x="562" y="70.9951">รหัสประเภทการตรวจสุขภาพที่บ้าน</text><text fill="#000000" font-family="sans-serif" font-size="13" lengthAdjust="spacingAndGlyphs" textLength="213" x="570" y="87.3467">1A000 เยี่ยมผู้ป่วยโรคความดันโลหิตสูง</text><path d="M571.5,130.5 L571.5,148 L425.213,152 L571.5,156 L571.5,173.2031 A0,0 0 0 0 571.5,173.2031 L782.5,173.2031 A0,0 0 0 0 782.5,173.2031 L782.5,140.5 L772.5,130.5 L571.5,130.5 A0,0 0 0 0 571.5,130.5 " fill="#FBFB77" filter="url(#f7b1na3vngrhd)" style="stroke: #A80036; stroke-width: 1.0;"/><path d="M772.5,130.5 L772.5,140.5 L782.5,140.5 L772.5,130.5 " fill="#FBFB77" style="stroke: #A80036; stroke-width: 1.0;"/><text fill="#000000" font-family="sans-serif" font-size="13" lengthAdjust="spacingAndGlyphs" textLength="190" x="577.5" y="148.9951">รหัสรายการโรคตามมาฐาน ICD10</text><text fill="#000000" font-family="sans-serif" font-size="13" lengthAdjust="spacingAndGlyphs" textLength="95" x="585.5" y="165.3467">A00 อหิวาตกโรค</text><path d="M513,208.5 L513,220.788 L436.385,222.345 L513,228.788 L513,251.2031 A0,0 0 0 0 513,251.2031 L841,251.2031 A0,0 0 0 0 841,251.2031 L841,218.5 L831,208.5 L513,208.5 A0,0 0 0 0 513,208.5 " fill="#FBFB77" filter="url(#f7b1na3vngrhd)" style="stroke: #A80036; stroke-width: 1.0;"/><path d="M831,208.5 L831,218.5 L841,218.5 L831,208.5 " fill="#FBFB77" style="stroke: #A80036; stroke-width: 1.0;"/><text fill="#000000" font-family="sans-serif" font-size="13" lengthAdjust="spacingAndGlyphs" textLength="178" x="519" y="226.9951">รหัสบริการส่งเสริมป้องกันเฉพาะ</text><text fill="#000000" font-family="sans-serif" font-size="13" lengthAdjust="spacingAndGlyphs" textLength="299" x="527" y="243.3467">1B140 การตรวจคัดกรองโรคซึมเศร้าในหญิงตั้งครรภ...</text><path d="M552,366.5 L552,392 L385.51,396 L552,400 L552,425.5547 A0,0 0 0 0 552,425.5547 L802,425.5547 A0,0 0 0 0 802,425.5547 L802,376.5 L792,366.5 L552,366.5 A0,0 0 0 0 552,366.5 " fill="#FBFB77" filter="url(#f7b1na3vngrhd)" style="stroke: #A80036; stroke-width: 1.0;"/><path d="M792,366.5 L792,376.5 L802,376.5 L792,366.5 " fill="#FBFB77" style="stroke: #A80036; stroke-width: 1.0;"/><text fill="#000000" font-family="sans-serif" font-size="13" lengthAdjust="spacingAndGlyphs" textLength="204" x="558" y="384.9951">ข้อมูลเจ้าหน้าที่ ที่ใช้งานระบบ รวมถึง</text><text fill="#000000" font-family="sans-serif" font-size="13" lengthAdjust="spacingAndGlyphs" textLength="217" x="558" y="401.3467">กระบวนการยืนยันตัวตน เพื่อ Authorize</text><text fill="#000000" font-family="sans-serif" font-size="13" lengthAdjust="spacingAndGlyphs" textLength="229" x="558" y="417.6982">ขอ token ในการขอเข้าถึง api ที่ป้องกันไว้</text><path d="M555,701.5 L555,727 L433.634,731 L555,735 L555,760.5547 A0,0 0 0 0 555,760.5547 L799,760.5547 A0,0 0 0 0 799,760.5547 L799,711.5 L789,701.5 L555,701.5 A0,0 0 0 0 555,701.5 " fill="#FBFB77" filter="url(#f7b1na3vngrhd)" style="stroke: #A80036; stroke-width: 1.0;"/><path d="M789,701.5 L789,711.5 L799,711.5 L789,701.5 " fill="#FBFB77" style="stroke: #A80036; stroke-width: 1.0;"/><text fill="#000000" font-family="sans-serif" font-size="13" lengthAdjust="spacingAndGlyphs" textLength="195" x="561" y="719.9951">ชุดข้อมูล สำหรับใช้ในการช่วยกรอก</text><text fill="#000000" font-family="sans-serif" font-size="13" lengthAdjust="spacingAndGlyphs" textLength="187" x="561" y="736.3467">โดยในแต่ละ Organization จะมีชุด</text><text fill="#000000" font-family="sans-serif" font-size="13" lengthAdjust="spacingAndGlyphs" textLength="223" x="561" y="752.6982">Template ที่อาจจะเหมือ หรือ ต่างกันก็ได้</text><!--MD5=[5864e684aec9d5652e9e076b45f4877e]
link Dev to Homehealth type lookup--><path d="M198.54,386.273 C202.104,310.907 213.371,158.565 247,119 C257.404,106.76 271.862,98.445 286.995,92.802 " fill="none" id="Dev-Homehealth type lookup" style="stroke: #A80036; stroke-width: 1.0;"/><!--MD5=[bef4a583ad217e4d1c0d38eb508a2048]
link Dev to ICD10 lookup--><path d="M200.475,386.359 C206.373,324.429 220.379,213.831 247,185 C261.118,169.711 281.84,161.349 301.758,156.828 " fill="none" id="Dev-ICD10 lookup" style="stroke: #A80036; stroke-width: 1.0;"/><!--MD5=[be959c51f1f37560726c5a1f7b0ed5e6]
link Dev to Special PP lookup--><path d="M206.23,386.467 C213.766,359.085 226.577,323.902 247,298 C268.678,270.506 302.709,249.003 327.952,235.599 " fill="none" id="Dev-Special PP lookup" style="stroke: #A80036; stroke-width: 1.0;"/><!--MD5=[1fd00bf858a38de3fe19baea5d3d4dae]
link Dev to Organization--><path d="M211.038,403.163 C219.727,389.408 232.073,373.259 247,363 C265.509,350.28 288.923,342.409 309.711,337.564 " fill="none" id="Dev-Organization" style="stroke: #A80036; stroke-width: 1.0;"/><!--MD5=[b02918b806bd479509cbde2be86c6c74]
link Dev to User--><path d="M211.267,426.129 C240.023,420.343 305.103,407.248 339.213,400.384 " fill="none" id="Dev-User" style="stroke: #A80036; stroke-width: 1.0;"/><!--MD5=[93dd024a78b4fcdd645019610ff46e50]
link Dev to Village--><path d="M211.267,431.871 C238.075,437.265 296.452,449.012 331.875,456.139 " fill="none" id="Dev-Village" style="stroke: #A80036; stroke-width: 1.0;"/><!--MD5=[55caa24c7e059b5a63309df6bc29c7ac]
link Dev to House--><path d="M211.038,454.837 C219.727,468.592 232.073,484.741 247,495 C272.301,512.388 306.769,520.715 331.162,524.637 " fill="none" id="Dev-House" style="stroke: #A80036; stroke-width: 1.0;"/><!--MD5=[9abb2edbb7f419b79cce53c09e405f5b]
link Dev to Person--><path d="M203.031,471.726 C209.287,500.704 221.876,537.817 247,561 C268.805,581.121 302.15,589.047 327.153,592.131 " fill="none" id="Dev-Person" style="stroke: #A80036; stroke-width: 1.0;"/><!--MD5=[3db95b7f5073f03008ba472e0f58ccbd]
link Dev to HealthCareService--><path d="M202.831,471.826 C210.642,523.118 225.991,604.902 247,627 C259.553,640.204 276.947,648.466 294.37,653.624 " fill="none" id="Dev-HealthCareService" style="stroke: #A80036; stroke-width: 1.0;"/><!--MD5=[58a6279118fa56269fb180aa5bd49c92]
link Dev to Template lookup--><path d="M199.627,471.627 C204.61,538.65 217.676,664.411 247,697 C259.709,711.1247 278.007,719.4884 296.235,724.4076 " fill="none" id="Dev-Template lookup" style="stroke: #A80036; stroke-width: 1.0;"/><!--MD5=[e1d913235822c94683b6c0d65587af81]
@startuml
left to right direction

:Dev: as Dev
note left of Dev
Maybe:
  Other service.
  Other platform.
end note

rectangle "Not authorize" {
  Dev - - (Homehealth type lookup)
  Dev - - (ICD10 lookup)
  Dev - - (Special PP lookup)
}

note right of (Homehealth type lookup)
รหัสประเภทการตรวจสุขภาพที่บ้าน
  1A000 เยี่ยมผู้ป่วยโรคความดันโลหิตสูง
endnote

note right of (ICD10 lookup)
รหัสรายการโรคตามมาฐาน ICD10
  A00 อหิวาตกโรค
endnote

note right of (Special PP lookup)
รหัสบริการส่งเสริมป้องกันเฉพาะ
  1B140 การตรวจคัดกรองโรคซึมเศร้าในหญิงตั้งครรภ...
endnote

rectangle Authorize {
  Dev - - (Organization)
  Dev - - (User)
  Dev - - (Village)
  Dev - - (House)
  Dev - - (Person)
  Dev - - (HealthCareService)
  Dev - - (Template lookup)
}

note right of (User)
ข้อมูลเจ้าหน้าที่ ที่ใช้งานระบบ รวมถึง
กระบวนการยืนยันตัวตน เพื่อ Authorize
ขอ token ในการขอเข้าถึง api ที่ป้องกันไว้
endnote

note right of (Template lookup)
ชุดข้อมูล สำหรับใช้ในการช่วยกรอก
โดยในแต่ละ Organization จะมีชุด
Template ที่อาจจะเหมือ หรือ ต่างกันก็ได้
endnote

@enduml

PlantUML version 1.2019.12(Sun Nov 03 17:24:54 ICT 2019)
(GPL source distribution)
Java Runtime: Java(TM) SE Runtime Environment
JVM: Java HotSpot(TM) 64-Bit Server VM
Java Version: 1.8.0_181-b13
Operating System: Windows 10
Default Encoding: MS874
Language: th
Country: TH
--></g></svg>