<?xml version="1.0" encoding="UTF-8" standalone="no"?><svg xmlns="http://www.w3.org/2000/svg" xmlns:xlink="http://www.w3.org/1999/xlink" contentScriptType="application/ecmascript" contentStyleType="text/css" height="483px" preserveAspectRatio="none" style="width:606px;height:483px;" version="1.1" viewBox="0 0 606 483" width="606px" zoomAndPan="magnify"><defs><filter height="300%" id="f1qyr61o5shw1s" width="300%" x="-1" y="-1"><feGaussianBlur result="blurOut" stdDeviation="2.0"/><feColorMatrix in="blurOut" result="blurOut2" type="matrix" values="0 0 0 0 0 0 0 0 0 0 0 0 0 0 0 0 0 0 .4 0"/><feOffset dx="4.0" dy="4.0" in="blurOut2" result="blurOut3"/><feBlend in="SourceGraphic" in2="blurOut3" mode="normal"/></filter></defs><g><line style="stroke: #A80036; stroke-width: 1.0; stroke-dasharray: 5.0,5.0;" x1="236" x2="236" y1="87.6094" y2="395.1797"/><line style="stroke: #A80036; stroke-width: 1.0; stroke-dasharray: 5.0,5.0;" x1="405.5" x2="405.5" y1="87.6094" y2="395.1797"/><text fill="#000000" font-family="sans-serif" font-size="14" lengthAdjust="spacingAndGlyphs" textLength="29" x="219" y="84.5332">User</text><ellipse cx="236.5" cy="13" fill="#FEFECE" filter="url(#f1qyr61o5shw1s)" rx="8" ry="8" style="stroke: #A80036; stroke-width: 2.0;"/><path d="M236.5,21 L236.5,48 M223.5,29 L249.5,29 M236.5,48 L223.5,63 M236.5,48 L249.5,63 " fill="none" filter="url(#f1qyr61o5shw1s)" style="stroke: #A80036; stroke-width: 2.0;"/><text fill="#000000" font-family="sans-serif" font-size="14" lengthAdjust="spacingAndGlyphs" textLength="29" x="219" y="408.7129">User</text><ellipse cx="236.5" cy="421.7891" fill="#FEFECE" filter="url(#f1qyr61o5shw1s)" rx="8" ry="8" style="stroke: #A80036; stroke-width: 2.0;"/><path d="M236.5,429.7891 L236.5,456.7891 M223.5,437.7891 L249.5,437.7891 M236.5,456.7891 L223.5,471.7891 M236.5,456.7891 L249.5,471.7891 " fill="none" filter="url(#f1qyr61o5shw1s)" style="stroke: #A80036; stroke-width: 2.0;"/><rect fill="#FEFECE" filter="url(#f1qyr61o5shw1s)" height="31.6094" style="stroke: #A80036; stroke-width: 1.5;" width="122" x="342.5" y="51"/><text fill="#000000" font-family="sans-serif" font-size="14" lengthAdjust="spacingAndGlyphs" textLength="108" x="349.5" y="72.5332">Authorize service</text><rect fill="#FEFECE" filter="url(#f1qyr61o5shw1s)" height="31.6094" style="stroke: #A80036; stroke-width: 1.5;" width="122" x="342.5" y="394.1797"/><text fill="#000000" font-family="sans-serif" font-size="14" lengthAdjust="spacingAndGlyphs" textLength="108" x="349.5" y="415.7129">Authorize service</text><polygon fill="#A80036" points="393.5,153.6641,403.5,157.6641,393.5,161.6641,397.5,157.6641" style="stroke: #A80036; stroke-width: 1.0;"/><line style="stroke: #A80036; stroke-width: 1.0;" x1="236.5" x2="399.5" y1="157.6641" y2="157.6641"/><text fill="#000000" font-family="sans-serif" font-size="13" lengthAdjust="spacingAndGlyphs" textLength="135" x="243.5" y="152.8076">Authentication Request</text><path d="M8,102.6094 L8,193.6094 L228,193.6094 L228,112.6094 L218,102.6094 L8,102.6094 " fill="#FBFB77" filter="url(#f1qyr61o5shw1s)" style="stroke: #A80036; stroke-width: 1.0;"/><path d="M218,102.6094 L218,112.6094 L228,112.6094 L218,102.6094 " fill="#FBFB77" style="stroke: #A80036; stroke-width: 1.0;"/><text fill="#000000" font-family="sans-serif" font-size="13" lengthAdjust="spacingAndGlyphs" textLength="63" x="14" y="121.1045">Login body</text><text fill="#000000" font-family="sans-serif" font-size="13" lengthAdjust="spacingAndGlyphs" textLength="4" x="14" y="137.4561">{</text><text fill="#000000" font-family="sans-serif" font-size="13" lengthAdjust="spacingAndGlyphs" textLength="141" x="22" y="153.8076">"username":"thanachai",</text><text fill="#000000" font-family="sans-serif" font-size="13" lengthAdjust="spacingAndGlyphs" textLength="191" x="22" y="170.1592">"password":"a1e6-4f63e8295160"</text><text fill="#000000" font-family="sans-serif" font-size="13" lengthAdjust="spacingAndGlyphs" textLength="4" x="14" y="186.5107">}</text><line style="stroke: #A80036; stroke-width: 1.0;" x1="405.5" x2="447.5" y1="242.0703" y2="242.0703"/><line style="stroke: #A80036; stroke-width: 1.0;" x1="447.5" x2="447.5" y1="242.0703" y2="255.0703"/><line style="stroke: #A80036; stroke-width: 1.0;" x1="406.5" x2="447.5" y1="255.0703" y2="255.0703"/><polygon fill="#A80036" points="416.5,251.0703,406.5,255.0703,416.5,259.0703,412.5,255.0703" style="stroke: #A80036; stroke-width: 1.0;"/><text fill="#000000" font-family="sans-serif" font-size="13" lengthAdjust="spacingAndGlyphs" textLength="182" x="412.5" y="220.8623">Check username and password</text><text fill="#000000" font-family="sans-serif" font-size="13" lengthAdjust="spacingAndGlyphs" textLength="115" x="412.5" y="237.2139">Check activate=true</text><polygon fill="#A80036" points="247.5,327.3008,237.5,331.3008,247.5,335.3008,243.5,331.3008" style="stroke: #A80036; stroke-width: 1.0;"/><line style="stroke: #A80036; stroke-width: 1.0; stroke-dasharray: 2.0,2.0;" x1="241.5" x2="404.5" y1="331.3008" y2="331.3008"/><text fill="#000000" font-family="sans-serif" font-size="13" lengthAdjust="spacingAndGlyphs" textLength="145" x="253.5" y="326.4443">Authentication Response</text><path d="M410,268.0703 L410,376.0703 L550,376.0703 L550,278.0703 L540,268.0703 L410,268.0703 " fill="#FBFB77" filter="url(#f1qyr61o5shw1s)" style="stroke: #A80036; stroke-width: 1.0;"/><path d="M540,268.0703 L540,278.0703 L550,278.0703 L540,268.0703 " fill="#FBFB77" style="stroke: #A80036; stroke-width: 1.0;"/><text fill="#000000" font-family="sans-serif" font-size="13" lengthAdjust="spacingAndGlyphs" textLength="35" x="416" y="286.5654">Token</text><text fill="#000000" font-family="sans-serif" font-size="13" lengthAdjust="spacingAndGlyphs" textLength="4" x="416" y="302.917">{</text><text fill="#000000" font-family="sans-serif" font-size="13" lengthAdjust="spacingAndGlyphs" textLength="111" x="424" y="319.2686">"expireDate":"xxx",</text><text fill="#000000" font-family="sans-serif" font-size="13" lengthAdjust="spacingAndGlyphs" textLength="16" x="424" y="335.6201">...,</text><text fill="#000000" font-family="sans-serif" font-size="13" lengthAdjust="spacingAndGlyphs" textLength="104" x="424" y="351.9717">"token":"sdfsdfue"</text><text fill="#000000" font-family="sans-serif" font-size="13" lengthAdjust="spacingAndGlyphs" textLength="4" x="416" y="368.3232">}</text><!--MD5=[e3ed2a4ddb3a9683abb705cd4a18d123]
@startuml
actor User

User -> "Authorize service": Authentication Request
note left: Login body\n{\n  "username":"thanachai",\n  "password":"a1e6-4f63e8295160"\n}

"Authorize service" -> "Authorize service": Check username and password\nCheck activate=true

"Authorize service" - -> User: Authentication Response
note right: Token\n{\n  "expireDate":"xxx",\n  ...,\n  "token":"sdfsdfue"\n}

@enduml

PlantUML version 1.2020.02(Sun Mar 01 17:22:07 ICT 2020)
(GPL source distribution)
Java Runtime: Java(TM) SE Runtime Environment
JVM: Java HotSpot(TM) 64-Bit Server VM
Java Version: 1.8.0_181-b13
Operating System: Windows 10
Default Encoding: MS874
Language: en
Country: US
--></g></svg>